<?xml version="1.0" standalone="no"?>
<!DOCTYPE svg PUBLIC "-//W3C//DTD SVG 20010904//EN"
 "http://www.w3.org/TR/2001/REC-SVG-20010904/DTD/svg10.dtd">
<svg version="1.0" xmlns="http://www.w3.org/2000/svg"
 width="128.000000pt" height="128.000000pt" viewBox="0 0 128.000000 128.000000"
 preserveAspectRatio="xMidYMid meet">
<metadata>
Created by potrace 1.13, written by Peter Selinger 2001-2015
</metadata>
<g transform="translate(0.000000,128.000000) scale(0.100000,-0.100000)"
fill="#000000" stroke="none">
<path d="M271 820 c-52 -12 -112 -60 -138 -109 -18 -35 -23 -60 -23 -122 l0
-78 -37 -3 c-33 -3 -38 -6 -38 -28 0 -23 4 -25 48 -28 27 -2 55 2 62 8 9 7 14
43 17 110 3 109 15 134 78 178 31 20 44 22 183 22 134 0 153 -2 187 -21 60
-34 80 -80 80 -187 0 -64 4 -93 14 -101 9 -8 91 -11 277 -9 l264 3 0 25 c0 22
-5 25 -37 28 l-36 3 -4 88 c-3 75 -7 93 -30 129 -15 22 -49 54 -75 69 l-48 28
-355 2 c-195 1 -370 -2 -389 -7z m769 -72 c60 -41 75 -71 79 -159 l3 -79 -186
0 -186 0 0 58 c0 71 -13 119 -45 166 l-24 36 163 0 c153 0 165 -1 196 -22z"/>
<path d="M917 743 c-4 -3 -7 -21 -7 -39 0 -31 -2 -33 -37 -36 -33 -3 -38 -6
-38 -28 0 -22 5 -25 38 -28 35 -3 37 -5 37 -37 0 -37 10 -48 34 -39 10 4 16
18 16 40 0 29 3 34 24 34 37 0 56 10 56 30 0 20 -19 30 -56 30 -21 0 -24 5
-24 34 0 22 -6 36 -16 40 -19 7 -19 7 -27 -1z"/>
</g>
</svg>
